<svg width="116" height="119" viewBox="0 0 116 119" fill="none" xmlns="http://www.w3.org/2000/svg">
<path d="M78.0313 79.0049L101.506 63.5424C109.336 57.4801 105.314 58.1833 101.653 59.7147C89.3577 64.8575 64.3138 75.442 57.8522 87.1793C49.7579 101.883 67.5368 85.3773 78.0313 79.0049Z" fill="#EE0768"/>
<path d="M51.2338 40.3321L79.2392 42.75C89.1412 42.8466 85.5492 40.9052 81.7272 39.8375C68.8913 36.2516 42.6783 29.0331 30.3322 34.238C14.8663 40.7582 39.0487 38.8272 51.2338 40.3321Z" fill="#EE0768"/>
<path d="M51.2373 61.309L79.6553 55.593C106.428 50.1939 92.7589 50.6827 86.7772 51.0968C66.6881 52.4872 25.7166 55.4754 10.8238 69.1164C-7.83232 86.2044 25.8769 66.2165 51.2373 61.309Z" fill="#EE0768"/>
</svg>
